<svg width="24" height="24" viewBox="0 0 24 24" fill="none" xmlns="http://www.w3.org/2000/svg">
<path d="M12 0C5.4 0 0 5.4 0 12C0 16.95 3 21.15 7.2 22.95C7.2 22.05 7.19999 21.15 7.34999 20.25C7.64999 19.2 8.84999 13.65 8.84999 13.65C8.84999 13.65 8.40001 12.9 8.40001 11.7C8.40001 9.9 9.45001 8.55 10.65 8.55C11.7 8.55 12.3 9.3 12.3 10.35C12.3 11.4 11.55 13.05 11.25 14.55C10.95 15.75 11.85 16.8 13.2 16.8C15.45 16.8 16.95 13.95 16.95 10.35C16.95 7.65 15.15 5.7 12 5.7C8.4 5.7 6.15001 8.4 6.15001 11.4C6.15001 12.45 6.45001 13.2 6.90001 13.8C7.05001 14.1 7.2 14.1 7.05 14.4C7.05 14.55 6.9 15.15 6.75 15.3C6.6 15.6 6.45001 15.75 6.15001 15.6C4.50001 14.85 3.75 13.05 3.75 10.95C3.75 7.5 6.6 3.45 12.3 3.45C16.95 3.45 19.95 6.75 19.95 10.35C19.95 15 17.4 18.6 13.5 18.6C12.15 18.6 10.95 17.85 10.5 17.1C10.5 17.1 9.74999 19.8 9.59999 20.4C9.29999 21.3 8.85001 22.2 8.40001 22.95C9.45001 23.25 10.65 23.4 11.85 23.4C18.45 23.4 23.85 18 23.85 11.4C24 5.4 18.6 0 12 0Z" fill="#17183B"/>
</svg>
