<svg width="24" height="24" viewBox="0 0 24 24" fill="none" xmlns="http://www.w3.org/2000/svg">
<path d="M24 5.25C23.1 5.7 22.2 5.85 21.15 6C22.2 5.4 22.95 4.5 23.25 3.3C22.35 3.9 21.3 4.2 20.1 4.5C19.2 3.6 17.85 3 16.5 3C13.35 3 10.95 6 11.7 9C7.65 8.85 4.05 6.9 1.5 3.9C0.15 6.15 0.9 9 3 10.5C2.25 10.5 1.5 10.2 0.75 9.9C0.75 12.15 2.4 14.25 4.65 14.85C3.9 15 3.15 15.15 2.4 15C3 16.95 4.8 18.45 7.05 18.45C5.25 19.8 2.55 20.55 0 20.25C2.25 21.6 4.8 22.5 7.5 22.5C16.65 22.5 21.75 14.85 21.45 7.8C22.5 7.2 23.4 6.3 24 5.25Z" fill="#17183B"/>
</svg>
